<svg xmlns="http://www.w3.org/2000/svg" version="1.1" xmlns:xlink="http://www.w3.org/1999/xlink" xmlns:svgjs="http://svgjs.dev/svgjs" width="2000" height="1500" viewBox="0 0 2000 1500"><rect width="2000" height="1500" fill="#ffffff"></rect><g transform="matrix(0.44603033006244425,0,0,0.44603033006244425,552.580232658313,250)"><svg viewBox="0 0 321 360" data-background-color="#ffffff" preserveAspectRatio="xMidYMid meet" height="2242" width="2000" xmlns="http://www.w3.org/2000/svg" xmlns:xlink="http://www.w3.org/1999/xlink"><g id="tight-bounds" transform="matrix(1,0,0,1,0.5000234999999975,0)"><svg viewBox="0 0 320 360" height="360" width="320"><g><svg></svg></g><g><svg viewBox="0 0 320 360" height="360" width="320"><g><path transform="translate(-74.99272,-51.79039) scale(4.65793,4.65793)" d="M20.6 59.9l0.8 1-0.4-1.3c-0.1-0.6-0.8 0.1-0.4 0.3M21.5 59.3c0.3 0.5 0.6 1 0.6 1.5 0 0.7 0.6 1 1.1 1.2-0.7-0.8-1.1-3-1.7-2.7M59.9 16.9c1.7 0 3.3-0.2 5.1 0.2 4.4 1.1 8.1 3.3 10.6 6.4l7 11.2c0.3 2.8 0.9 5.9 0.8 9.3 0.7 0 0.6-1 1.4-1.2-0.8 2-1.2 4.5-1.4 7.4-0.5-1.6 0-4 0.1-5.3-0.7 1.1-1.1 0.3-1.1-0.2 0.1-0.8-0.3-0.7-0.6-1-1.1-1-1.8-2.1-2.6-3.8 0.5-1.3 0.6-3.2-1-4.2-0.5-0.3-1.1-0.8-1.4-1.6-0.4-1.1-1.1-2.4-0.9-4.1 0.1-0.5-1.5 1.1-2.4 0.4-3.9-2.7-7.8-5.8-12.5-8.4-2.5 0-4.3-0.9-5.2-2-0.8-1-0.2-2.3 1-2.4 0.7 0 1.5-0.2 2.1 0.2 0.1-0.4 0.5-0.9 1-0.9M50 14.6l0.2 0.1c1 0.2 1.5 1.6 2.6 1.1 0 0.7 0.1 1.4-0.1 1.9-0.3 0.8-1.2 0.8-1.9 0.8-6.7-0.4-10.6 2.4-14.7 4.8-1.1 0.7-2.3 1.2-3.2 2.1-4.3 4-9 7.7-10.1 15.1l-0.9 8.2c-0.1 0.9-1.1 1.8-0.9 2.9l0.7 4.9c-0.7-0.7-1.1 0.2-0.9 0.6 0.1 0.3 0.5 1.3 1.1 0.4 0.8 1.5 1.6 4.4 2.7 5.7 3.4 4 7.8 7.6 11.4 11.2 0.9-0.2 1.6-0.2 1.8-0.8 0.3 0.6-0.3 1.2-0.8 1.3 1.6 1 3.4 1.9 5.8 2.1 3.1 0.2 6 0.7 8.7 1.4 1.4-0.4 2.8-0.6 4.3-0.7 0.5 0 0.8-0.8 1.4-1l0.1-1c0.6 0.9 0.5-0.3 0.1-0.9 0.7 0.6 0.9 1.1 1.2 1.5 0-0.3 0.8-1.4 0.8-0.1l0.2-1.3c0.3-0.2 0.4 1.1 0.7 0.2 0.3-0.9 0.9-0.2 1.5-0.5-0.2 0.4-0.1 1.2 0.6 0.7l0.8-0.7c0.5 1.2 1.3 0.7 1.7 0.5 4.4-2.8 8.8-6.1 13-9.4l-0.1 1.3 0.5-1.6c0.5 0.5 0.9 0.1 1.1-0.2 0.6-1 1.4-2 2.7-2.9-1.6 4.3-3.5 7.7-5.9 10.5l-1 1.2c0 0.7-0.2 1.6-1 1.7-0.4 0.1-1.2-0.2-1.8 0.4-0.3 0.4 0.7 1.2-0.1 0.6-0.7-0.5-1.4 0-2.2 0.2-0.6 0.2 0.4 0.8 0.6 1.2 0.2 0.4 0.4 0.8 0.3 1.3l-1.1-1.2c-1.3 0.7-2.1 2-3.2 3-0.5 0.4-0.3 1.1-0.3 1.7-0.7 0-1.5-0.2-1.9 0.2-0.3 0.4-0.2 1-0.2 1.6-1-0.1-1.1-1.6-2-1.3-0.9 0.2-1.9 0.3-2.7 0.8 0.6 1.2-1 0.5-0.8 0.7-1.5-0.9-2.8-1.6-4.4-1-3.4-1.1-7.6-0.6-10.7-0.2 0-0.5 0.1-1-0.1-1.1-0.2 0.5-0.8 0.3-0.7 0.3-1.9-1.3-3.8-2.1-5.8-3.2-1.8 0.2-3.5-0.7-4-1.2-1.4-1.3-3-0.6-4.3-0.9-2.8-0.7-3.8-3.6-4.1-5.6-0.2-1-1-1.4-1.3-1.3-1.3-4.2-3.3-8-4.9-11.9-0.4-1-0.3-2-0.3-3.1 0.5 0.2 1 0.1 0.9-0.6-0.5-3.3-1.7-5.8-3-8.2 0.7-3.4 0.8-7.4 2.4-10.4 1.4-2.7 4-4.1 5.8-6.4 0.6-0.8 0.6-1.9 1.2-2.6 2-2 4-4.1 6.2-5.9 1-0.8 2.2 0 3.7-0.3 0.5-1.8 2.5-3.4 4.4-2.9 0.8 0.2 2.4-1.9 2.9-2.1 0.8-0.3 0.4 0.8 0.4 1.5 1.9-1.5 4.5-2.3 6.9-3.2" fill="#690ad8" fill-rule="nonzero" stroke="none" stroke-width="1" stroke-linecap="butt" stroke-linejoin="miter" stroke-miterlimit="10" stroke-dasharray="" stroke-dashoffset="0" font-family="none" font-weight="none" font-size="none" text-anchor="none" style="mix-blend-mode: normal" data-fill-palette-color="tertiary"></path></g><g transform="matrix(1,0,0,1,64,103.91908731139242)"><svg viewBox="0 0 192 152.16182537721517" height="152.16182537721517" width="192"><g><svg viewBox="0 0 192 152.16182537721517" height="152.16182537721517" width="192"><g><svg viewBox="0 0 192 152.16182537721517" height="152.16182537721517" width="192"><g transform="matrix(1,0,0,1,0,91.96942031392403)"><svg viewBox="0 0 192 60.192405063291126" height="60.192405063291126" width="192"><g id="textblocktransform"><svg viewBox="0 0 192 60.192405063291126" height="60.192405063291126" width="192" id="textblock"><g><svg viewBox="0 0 192 60.192405063291126" height="60.192405063291126" width="192"><g transform="matrix(1,0,0,1,0,0)"><svg width="192" viewBox="1.1 -36.5 118.49000000000001 37.15" height="60.192405063291126" data-palette-color="#ef0a28"><path d="M27.95-2.75Q28.5-1.1 29.15-0.4L29.15-0.4Q28.3 0.55 26.8 0.55L26.8 0.55Q25.85 0.55 25.15 0.13 24.45-0.3 24.25-1.1L24.25-1.1 21.2-11 8.1-11 5.6-2.65Q5.3-1.55 5.3-1L5.3-1Q5.3-0.2 5.6 0.15L5.6 0.15Q4.55 0.55 3.4 0.55L3.4 0.55Q1.1 0.55 1.1-1.3L1.1-1.3Q1.1-1.95 1.6-3.55L1.6-3.55 12.2-34.65Q13.85-35.3 15.5-35.3L15.5-35.3Q17.45-35.3 17.9-33.8L17.9-33.8 27.95-2.75ZM8.85-13.4L20.5-13.4 14.6-32.6 8.85-13.4ZM54.45-5.7Q54.55-1.9 55.1-0.35L55.1-0.35Q54.1 0.55 52.8 0.55L52.8 0.55Q51.75 0.55 51.1-0.05 50.45-0.65 50.45-1.65L50.45-1.65 50.45-15.15Q50.4-19.5 49.22-21.6 48.05-23.7 45.25-23.7L45.25-23.7Q43.5-23.7 41.87-22.5 40.25-21.3 39.2-18.7 38.15-16.1 38.15-12.05L38.15-12.05Q38.15-5.6 38.25-3.65 38.35-1.7 38.85-0.35L38.85-0.35Q37.8 0.55 36.55 0.55L36.55 0.55Q35.5 0.55 34.85-0.1 34.2-0.75 34.2-1.85L34.2-1.85 34.2-20.3Q34.15-21.7 33.82-22.3 33.5-22.9 32.8-22.9L32.8-22.9Q31.85-22.9 31.5-22.1L31.5-22.1Q30.9-22.95 30.9-23.7L30.9-23.7Q30.9-24.75 31.7-25.38 32.5-26 33.9-26L33.9-26Q35.8-26 36.8-24.7 37.8-23.4 37.8-20.85L37.8-20.85 37.8-19.85Q38.85-22.8 41.1-24.43 43.35-26.05 46.4-26.05L46.4-26.05Q54.45-26.05 54.45-15.65L54.45-15.65 54.45-5.7ZM64.64-30Q63.55-30 62.75-30.8 61.95-31.6 61.95-32.7L61.95-32.7Q61.95-33.85 62.75-34.63 63.55-35.4 64.64-35.4L64.64-35.4Q65.8-35.4 66.57-34.63 67.34-33.85 67.34-32.7L67.34-32.7Q67.34-31.6 66.57-30.8 65.8-30 64.64-30L64.64-30ZM66.84-5.7Q66.84-2.05 67.5-0.35L67.5-0.35Q66.45 0.55 65.2 0.55L65.2 0.55Q64.2 0.55 63.57-0.05 62.95-0.65 62.95-1.65L62.95-1.65 62.9-19.8Q62.9-23.25 62.25-25.15L62.25-25.15Q63.3-26.05 64.55-26.05L64.55-26.05Q65.55-26.05 66.17-25.48 66.8-24.9 66.8-23.85L66.8-23.85 66.84-5.7ZM82.49 0.65Q77.84 0.65 75.52-1.03 73.19-2.7 73.19-5.4L73.19-5.4Q73.19-6.65 73.79-7.43 74.39-8.2 75.69-8.2L75.69-8.2Q76.19-8.2 76.49-8.15L76.49-8.15Q76.34-7.55 76.34-6.95L76.34-6.95Q76.34-6.4 76.39-6.05L76.39-6.05Q76.49-3.85 78.22-2.55 79.94-1.25 82.84-1.25L82.84-1.25Q85.69-1.25 87.39-2.25 89.09-3.25 89.09-5.2L89.09-5.2Q89.09-7 87.79-8.05 86.49-9.1 83.69-10.35L83.69-10.35 82.09-11.1Q79.29-12.4 77.82-13.3 76.34-14.2 75.27-15.75 74.19-17.3 74.19-19.65L74.19-19.65Q74.19-22.9 76.74-24.5 79.29-26.1 83.19-26.1L83.19-26.1Q87.29-26.1 89.59-24.78 91.89-23.45 91.89-21.1L91.89-21.1Q91.89-19 90.04-18.8L90.04-18.8Q89.54-18.7 89.39-18.7L89.39-18.7Q89.09-18.7 88.59-18.8L88.59-18.8Q88.69-19.4 88.69-19.8L88.69-19.8Q88.69-20.45 88.54-20.9L88.54-20.9Q88.34-22.55 86.92-23.4 85.49-24.25 83.04-24.25L83.04-24.25Q80.79-24.25 79.34-23.43 77.89-22.6 77.89-20.8L77.89-20.8Q77.89-19.3 78.74-18.23 79.59-17.15 80.77-16.48 81.94-15.8 84.34-14.65L84.34-14.65 85.44-14.15Q87.89-13 89.37-12.13 90.84-11.25 91.87-9.85 92.89-8.45 92.89-6.5L92.89-6.5Q92.89-3.55 90.44-1.45 87.99 0.65 82.49 0.65L82.49 0.65ZM118.99-5.7Q118.99-2.1 119.59-0.35L119.59-0.35Q118.59 0.55 117.29 0.55L117.29 0.55Q116.29 0.55 115.67-0.05 115.04-0.65 115.04-1.65L115.04-1.65 114.99-15.15Q114.99-19.55 113.82-21.7 112.64-23.85 109.79-23.85L109.79-23.85Q108.04-23.85 106.42-22.63 104.79-21.4 103.77-18.75 102.74-16.1 102.74-12.05L102.74-12.05Q102.74-5.6 102.84-3.65 102.94-1.7 103.44-0.35L103.44-0.35Q102.39 0.55 101.14 0.55L101.14 0.55Q100.09 0.55 99.47-0.1 98.84-0.75 98.84-1.85L98.84-1.85 98.79-34.3Q98.79-35.4 99.39-35.95 99.99-36.5 101.04-36.5L101.04-36.5Q101.79-36.5 102.44-36.23 103.09-35.95 103.44-35.6L103.44-35.6Q103.04-34.35 102.92-32.63 102.79-30.9 102.74-27.8L102.74-27.8 102.69-20.25Q103.79-23 105.94-24.53 108.09-26.05 110.94-26.05L110.94-26.05Q115.04-26.05 116.99-23.43 118.94-20.8 118.94-15.65L118.94-15.65 118.99-5.7Z" opacity="1" transform="matrix(1,0,0,1,0,0)" fill="#ef0a28" class="wordmark-text-0" data-fill-palette-color="primary" id="text-0"></path></svg></g></svg></g></svg></g></svg></g><g transform="matrix(1,0,0,1,63.04290271818806,0)"><svg viewBox="0 0 65.91419456362388 83.18590379746834" height="83.18590379746834" width="65.91419456362388"><g><svg xmlns="http://www.w3.org/2000/svg" xmlns:xlink="http://www.w3.org/1999/xlink" version="1.1" x="0" y="0" viewBox="-250.7 140.98709328582086 63.39999999999998 80.01290671417914" enable-background="new -269 131 100 100" xml:space="preserve" height="83.18590379746834" width="65.91419456362388" class="icon-icon-0" data-fill-palette-color="accent" id="icon-0"><path d="M-200.1 163.7L-201.1 162.9C-202.3 161.9-204.2 162.3-204.9 163.7-205.2 164.4-205.5 171.4-205.5 172.6V173.3C-205.5 174.3-206.4 175.1-207.4 174.9-208.2 174.8-208.8 174-208.8 173.2-208.9 161.2-212.5 152.8-219.3 146.5-223.4 142.7-228.3 139.3-229.8 141.9-230.2 142.6-229.6 144.1-228.9 146-227.5 150.3-231.8 157.2-237.9 164.1-243.6 170.6-250.7 178.6-250.7 190.5-250.7 206.5-235.6 221-219 221S-187.3 206.5-187.3 190.5C-187.3 180.4-192.1 170.4-200.1 163.7M-219 215.2C-226.2 215.2-232.1 209.3-232.1 202.1-232.1 198.5-230.7 195.3-228.3 192.9L-221.1 184.3C-220 183-217.9 183-216.8 184.3L-209.6 192.9C-207.3 195.3-205.8 198.5-205.8 202.1-205.9 209.3-211.8 215.2-219 215.2" fill="#c8ef0e" data-fill-palette-color="accent"></path></svg></g></svg></g><g></g></svg></g></svg></g></svg></g></svg></g><defs></defs></svg><rect width="320" height="360" fill="none" stroke="none" visibility="hidden"></rect></g></svg></g></svg>